<svg width="30" height="30" viewBox="0 0 30 30" fill="none" xmlns="http://www.w3.org/2000/svg">
<g filter="url(#filter0_d_386_114)">
<path fill-rule="evenodd" clip-rule="evenodd" d="M20.0015 6C20.0015 8.76142 17.7623 11 15 11C12.2378 11 9.99851 8.76142 9.99851 6C9.99851 3.23858 12.2378 1 15 1C17.7623 1 20.0015 3.23858 20.0015 6ZM18.001 5.99999C18.001 4.34314 16.6575 2.99999 15.0001 2.99999C13.3427 2.99999 11.9992 4.34314 11.9992 5.99999C11.9992 7.65684 13.3427 8.99999 15.0001 8.99999C16.6575 8.99999 18.001 7.65684 18.001 5.99999ZM24.893 19.55L23.0024 15.76C22.1545 14.0683 20.4239 13.0001 18.5311 13H11.4689C9.57614 13.0001 7.84555 14.0683 6.99758 15.76L5.10701 19.55C4.95099 19.8595 4.96642 20.2277 5.14778 20.5231C5.32915 20.8185 5.65058 20.9989 5.99728 21H24.0027C24.3494 20.9989 24.6709 20.8185 24.8522 20.5231C25.0336 20.2277 25.049 19.8595 24.893 19.55ZM8.78818 16.66L7.61782 19H22.3823L21.2119 16.66C20.7046 15.644 19.667 15.0015 18.5311 15H11.469C10.3331 15.0015 9.29552 15.644 8.78818 16.66Z" fill="black"/>
<path d="M23.0024 15.76L23.4498 15.5368L23.4494 15.5359L23.0024 15.76ZM24.893 19.55L24.4456 19.7732L24.4465 19.775L24.893 19.55ZM18.5311 13L18.5311 12.5H18.5311V13ZM11.4689 13V12.5H11.4689L11.4689 13ZM6.99758 15.76L6.55059 15.5359L6.55016 15.5368L6.99758 15.76ZM5.10701 19.55L5.5535 19.775L5.55443 19.7732L5.10701 19.55ZM5.14778 20.5231L4.72169 20.7847L5.14778 20.5231ZM5.99728 21L5.99577 21.5H5.99728V21ZM24.0027 21V21.5L24.0042 21.5L24.0027 21ZM7.61782 19L7.17064 18.7763L6.8087 19.5H7.61782V19ZM8.78818 16.66L9.23536 16.8836L9.2355 16.8834L8.78818 16.66ZM22.3823 19V19.5H23.1914L22.8295 18.7763L22.3823 19ZM21.2119 16.66L20.7646 16.8834L20.7647 16.8836L21.2119 16.66ZM18.5311 15L18.5318 14.5H18.5311V15ZM11.469 15V14.5H11.4683L11.469 15ZM15 11.5C18.0383 11.5 20.5015 9.03771 20.5015 6H19.5015C19.5015 8.48514 17.4863 10.5 15 10.5V11.5ZM9.49851 6C9.49851 9.03771 11.9618 11.5 15 11.5V10.5C12.5138 10.5 10.4985 8.48514 10.4985 6H9.49851ZM15 0.5C11.9618 0.5 9.49851 2.96229 9.49851 6H10.4985C10.4985 3.51486 12.5138 1.5 15 1.5V0.5ZM20.5015 6C20.5015 2.96229 18.0383 0.5 15 0.5V1.5C17.4863 1.5 19.5015 3.51486 19.5015 6H20.5015ZM15.0001 3.49999C16.3815 3.49999 17.501 4.61942 17.501 5.99999H18.501C18.501 4.06685 16.9335 2.49999 15.0001 2.49999V3.49999ZM12.4992 5.99999C12.4992 4.61942 13.6187 3.49999 15.0001 3.49999V2.49999C13.0667 2.49999 11.4992 4.06685 11.4992 5.99999H12.4992ZM15.0001 8.49999C13.6187 8.49999 12.4992 7.38056 12.4992 5.99999H11.4992C11.4992 7.93313 13.0667 9.49999 15.0001 9.49999V8.49999ZM17.501 5.99999C17.501 7.38056 16.3815 8.49999 15.0001 8.49999V9.49999C16.9335 9.49999 18.501 7.93313 18.501 5.99999H17.501ZM22.555 15.9832L24.4456 19.7732L25.3404 19.3268L23.4498 15.5368L22.555 15.9832ZM18.5311 13.5C20.2347 13.5 21.7923 14.4615 22.5554 15.984L23.4494 15.5359C22.5166 13.675 20.613 12.5001 18.5311 12.5L18.5311 13.5ZM11.4689 13.5H18.5311V12.5H11.4689V13.5ZM7.44457 15.984C8.20773 14.4615 9.7653 13.5 11.4689 13.5L11.4689 12.5C9.38699 12.5001 7.48337 13.675 6.55059 15.5359L7.44457 15.984ZM5.55443 19.7732L7.445 15.9832L6.55016 15.5368L4.65958 19.3268L5.55443 19.7732ZM5.57388 20.2615C5.48321 20.1138 5.4755 19.9298 5.55349 19.775L4.66052 19.3249C4.42648 19.7892 4.44963 20.3416 4.72169 20.7847L5.57388 20.2615ZM5.99879 20.5C5.82532 20.4995 5.66456 20.4092 5.57388 20.2615L4.72169 20.7847C4.99373 21.2278 5.47584 21.4984 5.99577 21.5L5.99879 20.5ZM24.0027 20.5H5.99728V21.5H24.0027V20.5ZM24.4261 20.2615C24.3354 20.4092 24.1747 20.4995 24.0012 20.5L24.0042 21.5C24.5242 21.4984 25.0063 21.2278 25.2783 20.7847L24.4261 20.2615ZM24.4465 19.775C24.5245 19.9298 24.5168 20.1138 24.4261 20.2615L25.2783 20.7847C25.5504 20.3416 25.5735 19.7892 25.3395 19.3249L24.4465 19.775ZM8.06501 19.2236L9.23536 16.8836L8.34099 16.4363L7.17064 18.7763L8.06501 19.2236ZM22.3823 18.5H7.61782V19.5H22.3823V18.5ZM20.7647 16.8836L21.9351 19.2236L22.8295 18.7763L21.6591 16.4363L20.7647 16.8836ZM18.5304 15.5C19.4771 15.5013 20.3418 16.0368 20.7646 16.8834L21.6593 16.4366C21.0673 15.2513 19.8568 14.5018 18.5318 14.5L18.5304 15.5ZM11.469 15.5H18.5311V14.5H11.469V15.5ZM9.2355 16.8834C9.65828 16.0368 10.523 15.5013 11.4697 15.5L11.4683 14.5C10.1433 14.5018 8.93277 15.2513 8.34085 16.4366L9.2355 16.8834Z" fill="white"/>
</g>
<defs>
<filter id="filter0_d_386_114" x="0.5" y="0.5" width="29" height="29" filterUnits="userSpaceOnUse" color-interpolation-filters="sRGB">
<feFlood flood-opacity="0" result="BackgroundImageFix"/>
<feColorMatrix in="SourceAlpha" type="matrix" values="0 0 0 0 0 0 0 0 0 0 0 0 0 0 0 0 0 0 127 0" result="hardAlpha"/>
<feOffset dy="4"/>
<feGaussianBlur stdDeviation="2"/>
<feComposite in2="hardAlpha" operator="out"/>
<feColorMatrix type="matrix" values="0 0 0 0 0 0 0 0 0 0 0 0 0 0 0 0 0 0 0.25 0"/>
<feBlend mode="normal" in2="BackgroundImageFix" result="effect1_dropShadow_386_114"/>
<feBlend mode="normal" in="SourceGraphic" in2="effect1_dropShadow_386_114" result="shape"/>
</filter>
</defs>
</svg>
