<svg width="29" height="29" viewBox="0 0 29 29" fill="none" xmlns="http://www.w3.org/2000/svg">
<g filter="url(#filter0_d_386_111)">
<path fill-rule="evenodd" clip-rule="evenodd" d="M19.6431 14.1474L23.8645 18.3747C24.053 18.5844 24.0437 18.9055 23.8434 19.1039L23.1047 19.8437C23.0056 19.9437 22.8707 20 22.73 20C22.5893 20 22.4544 19.9437 22.3553 19.8437L18.1339 15.6164C18.0172 15.4994 17.9112 15.372 17.8173 15.2359L17.0258 14.1791C15.7162 15.2263 14.0898 15.7965 12.4139 15.796C8.96034 15.808 5.95934 13.4224 5.18757 10.0515C4.41579 6.68058 6.07921 3.22404 9.19304 1.72824C12.3069 0.232444 16.0401 1.0966 18.1825 3.8091C20.3249 6.5216 20.3047 10.3585 18.1339 13.0483L19.1893 13.7775C19.3541 13.8831 19.5063 14.0072 19.6431 14.1474ZM7.13727 8.39798C7.13727 11.3163 9.49977 13.6821 12.4141 13.6821C13.8135 13.6821 15.1557 13.1254 16.1453 12.1344C17.1349 11.1435 17.6908 9.79942 17.6908 8.39798C17.6908 5.47963 15.3283 3.11384 12.4141 3.11384C9.49977 3.11384 7.13727 5.47963 7.13727 8.39798Z" fill="black"/>
<path d="M23.8645 18.3747L24.1434 18.124L24.1368 18.1167L24.1299 18.1097L23.8645 18.3747ZM19.6431 14.1474L19.3746 14.4093L19.3777 14.4124L19.6431 14.1474ZM23.8434 19.1039L23.5795 18.8375L23.5781 18.8389L23.8434 19.1039ZM23.1047 19.8437L22.8393 19.5787L22.8382 19.5798L23.1047 19.8437ZM22.3553 19.8437L22.6218 19.5798L22.6207 19.5787L22.3553 19.8437ZM18.1339 15.6164L17.8685 15.8813L17.8686 15.8814L18.1339 15.6164ZM17.8173 15.2359L18.126 15.023L18.1218 15.017L18.1175 15.0111L17.8173 15.2359ZM17.0258 14.1791L17.3259 13.9543L17.0939 13.6445L16.7916 13.8862L17.0258 14.1791ZM12.4139 15.796L12.414 15.421L12.4126 15.421L12.4139 15.796ZM5.18757 10.0515L4.82202 10.1352L5.18757 10.0515ZM9.19304 1.72824L9.03066 1.39022L9.19304 1.72824ZM18.1825 3.8091L17.8882 4.04153L18.1825 3.8091ZM18.1339 13.0483L17.8421 12.8128L17.5884 13.1272L17.9207 13.3568L18.1339 13.0483ZM19.1893 13.7775L18.976 14.0862L18.9869 14.0932L19.1893 13.7775ZM16.1453 12.1344L16.4107 12.3994L16.1453 12.1344ZM24.1299 18.1097L19.9084 13.8824L19.3777 14.4124L23.5992 18.6397L24.1299 18.1097ZM24.1073 19.3703C24.4498 19.0311 24.4656 18.4825 24.1434 18.124L23.5856 18.6254C23.6404 18.6864 23.6377 18.7799 23.5795 18.8375L24.1073 19.3703ZM23.37 20.1087L24.1088 19.3689L23.5781 18.8389L22.8393 19.5787L23.37 20.1087ZM22.73 20.375C22.9709 20.375 23.2016 20.2787 23.3711 20.1076L22.8382 19.5798C22.8095 19.6088 22.7705 19.625 22.73 19.625V20.375ZM22.0889 20.1076C22.2584 20.2787 22.4891 20.375 22.73 20.375V19.625C22.6895 19.625 22.6505 19.6088 22.6218 19.5798L22.0889 20.1076ZM17.8686 15.8814L22.09 20.1087L22.6207 19.5787L18.3993 15.3514L17.8686 15.8814ZM17.5086 15.4489C17.6153 15.6035 17.7358 15.7483 17.8685 15.8813L18.3994 15.3515C18.2986 15.2505 18.2071 15.1405 18.126 15.023L17.5086 15.4489ZM16.7256 14.4039L17.5172 15.4607L18.1175 15.0111L17.3259 13.9543L16.7256 14.4039ZM12.4138 16.171C14.1749 16.1716 15.8839 15.5724 17.26 14.472L16.7916 13.8862C15.5484 14.8803 14.0047 15.4215 12.414 15.421L12.4138 16.171ZM4.82202 10.1352C5.63286 13.6767 8.78595 16.1837 12.4152 16.171L12.4126 15.421C9.13473 15.4324 6.28583 13.1681 5.55311 9.96781L4.82202 10.1352ZM9.03066 1.39022C5.75868 2.96199 4.01121 6.59377 4.82202 10.1352L5.55311 9.96781C4.82037 6.7674 6.39975 3.48609 9.35541 2.06626L9.03066 1.39022ZM18.4767 3.57667C16.2257 0.726579 12.3028 -0.181627 9.03066 1.39022L9.35541 2.06626C12.3109 0.646515 15.8544 1.46661 17.8882 4.04153L18.4767 3.57667ZM18.4257 13.2838C20.7065 10.4578 20.7277 6.42659 18.4767 3.57667L17.8882 4.04153C19.922 6.61661 19.9029 10.2593 17.8421 12.8128L18.4257 13.2838ZM19.4024 13.469L18.3471 12.7398L17.9207 13.3568L18.9761 14.086L19.4024 13.469ZM19.9115 13.8855C19.7549 13.725 19.5804 13.5828 19.3916 13.4618L18.9869 14.0932C19.1277 14.1835 19.2578 14.2895 19.3747 14.4093L19.9115 13.8855ZM12.4141 13.3071C9.70736 13.3071 7.51227 11.1097 7.51227 8.39798H6.76227C6.76227 11.5229 9.29217 14.0571 12.4141 14.0571V13.3071ZM15.88 11.8695C14.9607 12.79 13.7139 13.3071 12.4141 13.3071V14.0571C13.9132 14.0571 15.3508 13.4608 16.4107 12.3994L15.88 11.8695ZM17.3158 8.39798C17.3158 9.70014 16.7993 10.9489 15.88 11.8695L16.4107 12.3994C17.4705 11.3381 18.0658 9.89871 18.0658 8.39798H17.3158ZM12.4141 3.48884C15.1207 3.48884 17.3158 5.68625 17.3158 8.39798H18.0658C18.0658 5.27302 15.5359 2.73884 12.4141 2.73884V3.48884ZM7.51227 8.39798C7.51227 5.68625 9.70736 3.48884 12.4141 3.48884V2.73884C9.29217 2.73884 6.76227 5.27302 6.76227 8.39798H7.51227Z" fill="white"/>
</g>
<defs>
<filter id="filter0_d_386_111" x="0.624967" y="0.625" width="27.75" height="27.75" filterUnits="userSpaceOnUse" color-interpolation-filters="sRGB">
<feFlood flood-opacity="0" result="BackgroundImageFix"/>
<feColorMatrix in="SourceAlpha" type="matrix" values="0 0 0 0 0 0 0 0 0 0 0 0 0 0 0 0 0 0 127 0" result="hardAlpha"/>
<feOffset dy="4"/>
<feGaussianBlur stdDeviation="2"/>
<feComposite in2="hardAlpha" operator="out"/>
<feColorMatrix type="matrix" values="0 0 0 0 0 0 0 0 0 0 0 0 0 0 0 0 0 0 0.25 0"/>
<feBlend mode="normal" in2="BackgroundImageFix" result="effect1_dropShadow_386_111"/>
<feBlend mode="normal" in="SourceGraphic" in2="effect1_dropShadow_386_111" result="shape"/>
</filter>
</defs>
</svg>
