<svg width="292" height="27" viewBox="0 0 292 27" fill="none" xmlns="http://www.w3.org/2000/svg">
<g clip-path="url(#clip0_888_1329)">
<path d="M17.9529 12.9041C17.8344 12.5396 17.5111 12.2816 17.1302 12.2471L11.9341 11.7754L9.88059 6.96766C9.72898 6.61444 9.384 6.38647 9.00002 6.38647C8.61605 6.38647 8.27093 6.61444 8.12028 6.96766L6.06676 11.7754L0.869868 12.2471C0.488911 12.2822 0.166319 12.5403 0.0471156 12.9041C-0.0714014 13.2686 0.0380517 13.6683 0.326173 13.921L4.25399 17.3652L3.09587 22.4659C3.01114 22.841 3.15671 23.2288 3.4679 23.4537C3.63517 23.5753 3.83169 23.636 4.0289 23.636C4.19837 23.636 4.36797 23.5909 4.51945 23.5003L9.00002 20.8212L13.4798 23.5003C13.8084 23.6967 14.2216 23.6787 14.5321 23.4537C14.8433 23.2288 14.9889 22.841 14.9042 22.4659L13.7461 17.3652L17.6739 13.921C17.9619 13.6683 18.0714 13.2694 17.9529 12.9041Z" fill="black"/>
</g>
<g clip-path="url(#clip1_888_1329)">
<path d="M73.9529 12.9041C73.8344 12.5396 73.5111 12.2816 73.1302 12.2471L67.9341 11.7754L65.8806 6.96766C65.729 6.61444 65.384 6.38647 65 6.38647C64.616 6.38647 64.2709 6.61444 64.1203 6.96766L62.0668 11.7754L56.8699 12.2471C56.4889 12.2822 56.1663 12.5403 56.0471 12.9041C55.9286 13.2686 56.0381 13.6683 56.3262 13.921L60.254 17.3652L59.0959 22.4659C59.0111 22.841 59.1567 23.2288 59.4679 23.4537C59.6352 23.5753 59.8317 23.636 60.0289 23.636C60.1984 23.636 60.368 23.5909 60.5194 23.5003L65 20.8212L69.4798 23.5003C69.8084 23.6967 70.2216 23.6787 70.5321 23.4537C70.8433 23.2288 70.9889 22.841 70.9042 22.4659L69.7461 17.3652L73.6739 13.921C73.9619 13.6683 74.0714 13.2694 73.9529 12.9041Z" fill="black"/>
</g>
<g clip-path="url(#clip2_888_1329)">
<path d="M45.9529 12.9041C45.8344 12.5396 45.5111 12.2816 45.1302 12.2471L39.9341 11.7754L37.8806 6.96766C37.729 6.61444 37.384 6.38647 37 6.38647C36.616 6.38647 36.2709 6.61444 36.1203 6.96766L34.0668 11.7754L28.8699 12.2471C28.4889 12.2822 28.1663 12.5403 28.0471 12.9041C27.9286 13.2686 28.0381 13.6683 28.3262 13.921L32.254 17.3652L31.0959 22.4659C31.0111 22.841 31.1567 23.2288 31.4679 23.4537C31.6352 23.5753 31.8317 23.636 32.0289 23.636C32.1984 23.636 32.368 23.5909 32.5194 23.5003L37 20.8212L41.4798 23.5003C41.8084 23.6967 42.2216 23.6787 42.5321 23.4537C42.8433 23.2288 42.9889 22.841 42.9042 22.4659L41.7461 17.3652L45.6739 13.921C45.9619 13.6683 46.0714 13.2694 45.9529 12.9041Z" fill="black"/>
</g>
<g clip-path="url(#clip3_888_1329)">
<path d="M101.953 12.9041C101.834 12.5396 101.511 12.2816 101.13 12.2471L95.9341 11.7754L93.8806 6.96766C93.729 6.61444 93.384 6.38647 93 6.38647C92.616 6.38647 92.2709 6.61444 92.1203 6.96766L90.0668 11.7754L84.8699 12.2471C84.4889 12.2822 84.1663 12.5403 84.0471 12.9041C83.9286 13.2686 84.0381 13.6683 84.3262 13.921L88.254 17.3652L87.0959 22.4659C87.0111 22.841 87.1567 23.2288 87.4679 23.4537C87.6352 23.5753 87.8317 23.636 88.0289 23.636C88.1984 23.636 88.368 23.5909 88.5194 23.5003L93 20.8212L97.4798 23.5003C97.8084 23.6967 98.2216 23.6787 98.5321 23.4537C98.8433 23.2288 98.9889 22.841 98.9042 22.4659L97.7461 17.3652L101.674 13.921C101.962 13.6683 102.071 13.2694 101.953 12.9041Z" fill="black"/>
</g>
<g clip-path="url(#clip4_888_1329)">
<path d="M129.953 12.9041C129.834 12.5396 129.511 12.2816 129.13 12.2471L123.934 11.7754L121.881 6.96766C121.729 6.61444 121.384 6.38647 121 6.38647C120.616 6.38647 120.271 6.61444 120.12 6.96766L118.067 11.7754L112.87 12.2471C112.489 12.2822 112.166 12.5403 112.047 12.9041C111.929 13.2686 112.038 13.6683 112.326 13.921L116.254 17.3652L115.096 22.4659C115.011 22.841 115.157 23.2288 115.468 23.4537C115.635 23.5753 115.832 23.636 116.029 23.636C116.198 23.636 116.368 23.5909 116.519 23.5003L121 20.8212L125.48 23.5003C125.808 23.6967 126.222 23.6787 126.532 23.4537C126.843 23.2288 126.989 22.841 126.904 22.4659L125.746 17.3652L129.674 13.921C129.962 13.6683 130.071 13.2694 129.953 12.9041Z" fill="black"/>
</g>
<path d="M156.288 19V9.304L154.48 9.704V8.776L156.736 7.8H157.648V19H156.288ZM167.815 19.192C167.057 19.192 166.375 19.0213 165.767 18.68C165.169 18.328 164.695 17.8427 164.343 17.224C164.001 16.5947 163.831 15.864 163.831 15.032C163.831 14.2 164.001 13.4747 164.343 12.856C164.695 12.2267 165.169 11.7413 165.767 11.4C166.375 11.048 167.057 10.872 167.815 10.872C168.753 10.872 169.543 11.1173 170.183 11.608C170.833 12.0987 171.244 12.7547 171.415 13.576H170.039C169.932 13.0853 169.671 12.7067 169.255 12.44C168.839 12.1627 168.353 12.024 167.799 12.024C167.351 12.024 166.929 12.136 166.535 12.36C166.14 12.584 165.82 12.92 165.575 13.368C165.329 13.816 165.207 14.3707 165.207 15.032C165.207 15.6933 165.329 16.248 165.575 16.696C165.82 17.144 166.14 17.4853 166.535 17.72C166.929 17.944 167.351 18.056 167.799 18.056C168.353 18.056 168.839 17.9227 169.255 17.656C169.671 17.3787 169.932 16.9893 170.039 16.488H171.415C171.255 17.288 170.849 17.9387 170.199 18.44C169.548 18.9413 168.753 19.192 167.815 19.192ZM176.188 19.192C175.249 19.192 174.502 18.9093 173.948 18.344C173.393 17.768 173.116 16.888 173.116 15.704V11.064H174.46V15.56C174.46 17.2133 175.137 18.04 176.492 18.04C177.185 18.04 177.756 17.7947 178.204 17.304C178.662 16.8027 178.892 16.0933 178.892 15.176V11.064H180.236V19H179.02L178.924 17.576C178.678 18.0773 178.31 18.472 177.82 18.76C177.34 19.048 176.796 19.192 176.188 19.192ZM185.488 19.192C184.538 19.192 183.749 18.952 183.12 18.472C182.49 17.992 182.122 17.3413 182.016 16.52H183.392C183.477 16.936 183.696 17.2987 184.048 17.608C184.41 17.9067 184.896 18.056 185.504 18.056C186.069 18.056 186.485 17.9387 186.752 17.704C187.018 17.4587 187.152 17.1707 187.152 16.84C187.152 16.36 186.976 16.04 186.624 15.88C186.282 15.72 185.797 15.576 185.168 15.448C184.741 15.3627 184.314 15.24 183.888 15.08C183.461 14.92 183.104 14.696 182.816 14.408C182.528 14.1093 182.384 13.72 182.384 13.24C182.384 12.5467 182.64 11.9813 183.152 11.544C183.674 11.096 184.378 10.872 185.264 10.872C186.106 10.872 186.794 11.0853 187.328 11.512C187.872 11.928 188.186 12.5253 188.272 13.304H186.944C186.89 12.8987 186.714 12.584 186.416 12.36C186.128 12.1253 185.738 12.008 185.248 12.008C184.768 12.008 184.394 12.1093 184.128 12.312C183.872 12.5147 183.744 12.7813 183.744 13.112C183.744 13.432 183.909 13.6827 184.24 13.864C184.581 14.0453 185.04 14.2 185.616 14.328C186.106 14.4347 186.57 14.568 187.008 14.728C187.456 14.8773 187.818 15.1067 188.096 15.416C188.384 15.7147 188.528 16.152 188.528 16.728C188.538 17.4427 188.266 18.0347 187.712 18.504C187.168 18.9627 186.426 19.192 185.488 19.192ZM193.224 19C192.499 19 191.928 18.824 191.512 18.472C191.096 18.12 190.888 17.4853 190.888 16.568V12.2H189.512V11.064H190.888L191.064 9.16H192.232V11.064H194.568V12.2H192.232V16.568C192.232 17.0693 192.334 17.4107 192.536 17.592C192.739 17.7627 193.096 17.848 193.608 17.848H194.44V19H193.224ZM199.673 19.192C198.926 19.192 198.254 19.0213 197.657 18.68C197.06 18.3387 196.585 17.8587 196.233 17.24C195.892 16.6107 195.721 15.8747 195.721 15.032C195.721 14.1893 195.897 13.4587 196.249 12.84C196.601 12.2107 197.076 11.7253 197.673 11.384C198.281 11.0427 198.958 10.872 199.705 10.872C200.452 10.872 201.124 11.0427 201.721 11.384C202.318 11.7253 202.788 12.2107 203.129 12.84C203.481 13.4587 203.657 14.1893 203.657 15.032C203.657 15.8747 203.481 16.6107 203.129 17.24C202.777 17.8587 202.297 18.3387 201.689 18.68C201.092 19.0213 200.42 19.192 199.673 19.192ZM199.673 18.04C200.132 18.04 200.558 17.928 200.953 17.704C201.348 17.48 201.668 17.144 201.913 16.696C202.158 16.248 202.281 15.6933 202.281 15.032C202.281 14.3707 202.158 13.816 201.913 13.368C201.678 12.92 201.364 12.584 200.969 12.36C200.574 12.136 200.153 12.024 199.705 12.024C199.246 12.024 198.82 12.136 198.425 12.36C198.03 12.584 197.71 12.92 197.465 13.368C197.22 13.816 197.097 14.3707 197.097 15.032C197.097 15.6933 197.22 16.248 197.465 16.696C197.71 17.144 198.025 17.48 198.409 17.704C198.804 17.928 199.225 18.04 199.673 18.04ZM205.526 19V11.064H206.742L206.838 12.216C207.094 11.7893 207.435 11.4587 207.862 11.224C208.289 10.9893 208.769 10.872 209.302 10.872C209.931 10.872 210.47 11 210.918 11.256C211.377 11.512 211.729 11.9013 211.974 12.424C212.251 11.944 212.63 11.5653 213.11 11.288C213.601 11.0107 214.129 10.872 214.694 10.872C215.643 10.872 216.401 11.16 216.966 11.736C217.531 12.3013 217.814 13.176 217.814 14.36V19H216.486V14.504C216.486 13.6827 216.321 13.064 215.99 12.648C215.659 12.232 215.185 12.024 214.566 12.024C213.926 12.024 213.393 12.2747 212.966 12.776C212.55 13.2667 212.342 13.9707 212.342 14.888V19H210.998V14.504C210.998 13.6827 210.833 13.064 210.502 12.648C210.171 12.232 209.697 12.024 209.078 12.024C208.449 12.024 207.921 12.2747 207.494 12.776C207.078 13.2667 206.87 13.9707 206.87 14.888V19H205.526ZM223.406 19.192C222.649 19.192 221.977 19.0213 221.39 18.68C220.804 18.328 220.34 17.8427 219.998 17.224C219.668 16.6053 219.502 15.8747 219.502 15.032C219.502 14.2 219.668 13.4747 219.998 12.856C220.329 12.2267 220.788 11.7413 221.374 11.4C221.972 11.048 222.66 10.872 223.438 10.872C224.206 10.872 224.868 11.048 225.422 11.4C225.988 11.7413 226.42 12.1947 226.718 12.76C227.017 13.3253 227.166 13.9333 227.166 14.584C227.166 14.7013 227.161 14.8187 227.15 14.936C227.15 15.0533 227.15 15.1867 227.15 15.336H220.83C220.862 15.944 221.001 16.4507 221.246 16.856C221.502 17.2507 221.817 17.5493 222.19 17.752C222.574 17.9547 222.98 18.056 223.406 18.056C223.961 18.056 224.425 17.928 224.798 17.672C225.172 17.416 225.444 17.0693 225.614 16.632H226.942C226.729 17.368 226.318 17.9813 225.71 18.472C225.113 18.952 224.345 19.192 223.406 19.192ZM223.406 12.008C222.766 12.008 222.196 12.2053 221.694 12.6C221.204 12.984 220.921 13.5493 220.846 14.296H225.838C225.806 13.5813 225.561 13.0213 225.102 12.616C224.644 12.2107 224.078 12.008 223.406 12.008ZM228.948 19V11.064H230.164L230.276 12.584C230.521 12.0613 230.894 11.6453 231.396 11.336C231.897 11.0267 232.516 10.872 233.252 10.872V12.28H232.884C232.414 12.28 231.982 12.3653 231.588 12.536C231.193 12.696 230.878 12.9733 230.644 13.368C230.409 13.7627 230.292 14.3067 230.292 15V19H228.948ZM238.995 19V11.064H240.211L240.323 12.584C240.568 12.0613 240.941 11.6453 241.443 11.336C241.944 11.0267 242.563 10.872 243.299 10.872V12.28H242.931C242.461 12.28 242.029 12.3653 241.635 12.536C241.24 12.696 240.925 12.9733 240.691 13.368C240.456 13.7627 240.339 14.3067 240.339 15V19H238.995ZM248.078 19.192C247.321 19.192 246.649 19.0213 246.062 18.68C245.476 18.328 245.012 17.8427 244.67 17.224C244.34 16.6053 244.174 15.8747 244.174 15.032C244.174 14.2 244.34 13.4747 244.67 12.856C245.001 12.2267 245.46 11.7413 246.046 11.4C246.644 11.048 247.332 10.872 248.11 10.872C248.878 10.872 249.54 11.048 250.094 11.4C250.66 11.7413 251.092 12.1947 251.39 12.76C251.689 13.3253 251.838 13.9333 251.838 14.584C251.838 14.7013 251.833 14.8187 251.822 14.936C251.822 15.0533 251.822 15.1867 251.822 15.336H245.502C245.534 15.944 245.673 16.4507 245.918 16.856C246.174 17.2507 246.489 17.5493 246.862 17.752C247.246 17.9547 247.652 18.056 248.078 18.056C248.633 18.056 249.097 17.928 249.47 17.672C249.844 17.416 250.116 17.0693 250.286 16.632H251.614C251.401 17.368 250.99 17.9813 250.382 18.472C249.785 18.952 249.017 19.192 248.078 19.192ZM248.078 12.008C247.438 12.008 246.868 12.2053 246.366 12.6C245.876 12.984 245.593 13.5493 245.518 14.296H250.51C250.478 13.5813 250.233 13.0213 249.774 12.616C249.316 12.2107 248.75 12.008 248.078 12.008ZM255.595 19L252.587 11.064H253.995L256.379 17.704L258.779 11.064H260.155L257.147 19H255.595ZM262.467 9.304C262.2 9.304 261.976 9.21867 261.795 9.048C261.624 8.86667 261.539 8.64267 261.539 8.376C261.539 8.12 261.624 7.90667 261.795 7.736C261.976 7.56533 262.2 7.48 262.467 7.48C262.723 7.48 262.942 7.56533 263.123 7.736C263.304 7.90667 263.395 8.12 263.395 8.376C263.395 8.64267 263.304 8.86667 263.123 9.048C262.942 9.21867 262.723 9.304 262.467 9.304ZM261.795 19V11.064H263.139V19H261.795ZM269.047 19.192C268.29 19.192 267.618 19.0213 267.031 18.68C266.444 18.328 265.98 17.8427 265.639 17.224C265.308 16.6053 265.143 15.8747 265.143 15.032C265.143 14.2 265.308 13.4747 265.639 12.856C265.97 12.2267 266.428 11.7413 267.015 11.4C267.612 11.048 268.3 10.872 269.079 10.872C269.847 10.872 270.508 11.048 271.063 11.4C271.628 11.7413 272.06 12.1947 272.359 12.76C272.658 13.3253 272.807 13.9333 272.807 14.584C272.807 14.7013 272.802 14.8187 272.791 14.936C272.791 15.0533 272.791 15.1867 272.791 15.336H266.471C266.503 15.944 266.642 16.4507 266.887 16.856C267.143 17.2507 267.458 17.5493 267.831 17.752C268.215 17.9547 268.62 18.056 269.047 18.056C269.602 18.056 270.066 17.928 270.439 17.672C270.812 17.416 271.084 17.0693 271.255 16.632H272.583C272.37 17.368 271.959 17.9813 271.351 18.472C270.754 18.952 269.986 19.192 269.047 19.192ZM269.047 12.008C268.407 12.008 267.836 12.2053 267.335 12.6C266.844 12.984 266.562 13.5493 266.487 14.296H271.479C271.447 13.5813 271.202 13.0213 270.743 12.616C270.284 12.2107 269.719 12.008 269.047 12.008ZM275.876 19L273.556 11.064H274.9L276.58 17.288L278.436 11.064H279.956L281.828 17.288L283.492 11.064H284.852L282.532 19H281.156L279.204 12.456L277.252 19H275.876Z" fill="#707070"/>
<defs>
<clipPath id="clip0_888_1329">
<rect width="18" height="18" fill="white" transform="translate(0 6)"/>
</clipPath>
<clipPath id="clip1_888_1329">
<rect width="18" height="18" fill="white" transform="translate(56 6)"/>
</clipPath>
<clipPath id="clip2_888_1329">
<rect width="18" height="18" fill="white" transform="translate(28 6)"/>
</clipPath>
<clipPath id="clip3_888_1329">
<rect width="18" height="18" fill="white" transform="translate(84 6)"/>
</clipPath>
<clipPath id="clip4_888_1329">
<rect width="18" height="18" fill="white" transform="translate(112 6)"/>
</clipPath>
</defs>
</svg>
